<svg xmlns="http://www.w3.org/2000/svg" width="25.5" height="25.49" viewBox="0 0 25.5 25.49">
  <g id="inbox" transform="translate(0 -0.01)">
    <path id="Path_332" data-name="Path 332" d="M23.641,14H20.713a1.851,1.851,0,0,0-1.782,1.325l-.912,3.041a1.335,1.335,0,0,1-1.272.947H8.753a1.335,1.335,0,0,1-1.272-.947L6.57,15.325A1.849,1.849,0,0,0,4.788,14H1.859A1.861,1.861,0,0,0,0,15.859V21.7a2.924,2.924,0,0,0,2.922,2.922H22.579A2.924,2.924,0,0,0,25.5,21.7V15.859A1.861,1.861,0,0,0,23.641,14Z" transform="translate(0 0.875)" fill="#753ad7"/>
    <path id="Path_333" data-name="Path 333" d="M7.75,5.531,12.266.75l4.516,4.781Z" transform="translate(0.485 0.046)" fill="#753ad7"/>
    <path id="Path_334" data-name="Path 334" d="M16.828,6.375H7.8A.8.8,0,0,1,7.218,5.03L11.734.249a.821.821,0,0,1,1.158,0L17.407,5.03a.8.8,0,0,1-.579,1.344ZM9.646,4.781H14.98L12.313,1.957Z" transform="translate(0.438 0)" fill="#753ad7"/>
    <path id="Path_335" data-name="Path 335" d="M12.063,14.766A1.062,1.062,0,0,1,11,13.7V2.813a1.063,1.063,0,1,1,2.125,0V13.7A1.062,1.062,0,0,1,12.063,14.766Z" transform="translate(0.688 0.109)" fill="#753ad7"/>
  </g>
</svg>
