<svg xmlns="http://www.w3.org/2000/svg" width="18.778" height="21.059" viewBox="0 0 18.778 21.059">
  <g id="calendar-interface-symbol-with-squares-in-rounded-rectangular-shape-with-spring-on-top-border" transform="translate(0 0)">
    <g id="Group_256" data-name="Group 256" transform="translate(0)">
      <path id="Path_324" data-name="Path 324" d="M18.3,2.281h-.634V1.589a1.543,1.543,0,1,0-3.085,0V2.28H12.993V1.589a1.543,1.543,0,1,0-3.085,0V2.28H8.325V1.589a1.543,1.543,0,1,0-3.085,0V2.28H4.43A2.459,2.459,0,0,0,1.974,4.736V5.892H20.752V4.736A2.458,2.458,0,0,0,18.3,2.281ZM7.458,4.418a.677.677,0,1,1-1.352,0V1.589a.677.677,0,1,1,1.352,0Zm4.668,0a.677.677,0,1,1-1.352,0V1.589a.677.677,0,1,1,1.352,0Zm4.668,0a.677.677,0,1,1-1.352,0V1.589a.677.677,0,1,1,1.352,0Z" transform="translate(-1.974)" fill="#753ad7"/>
      <path id="Path_325" data-name="Path 325" d="M1.974,23.712A2.459,2.459,0,0,0,4.43,26.167H18.3a2.458,2.458,0,0,0,2.456-2.456V12.1H1.974V23.712Zm13.378-9.755h2.655v2.362H15.352Zm0,3.153h2.655V19.47H15.352Zm0,3.154h2.655v2.361H15.352Zm-3.543-6.306h2.655v2.362H11.809Zm0,3.153h2.655V19.47H11.809Zm0,3.154h2.655v2.361H11.809ZM8.263,13.957h2.655v2.362H8.263Zm0,3.153h2.655V19.47H8.263Zm0,3.154h2.655v2.361H8.263ZM4.718,17.109H7.374V19.47H4.718Zm0,3.154H7.374v2.361H4.718Z" transform="translate(-1.974 -5.108)" fill="#753ad7"/>
    </g>
  </g>
</svg>
