<svg xmlns="http://www.w3.org/2000/svg" xmlns:xlink="http://www.w3.org/1999/xlink" width="32.001" height="41.986" viewBox="0 0 32.001 41.986">
  <defs>
    <clipPath id="clip-path">
      <rect width="32.001" height="41.986" fill="none"/>
    </clipPath>
  </defs>
  <g id="file-21" clip-path="url(#clip-path)">
    <path id="Union_6" data-name="Union 6" d="M15.5,25.3H0V0H20.815V10.186H31V25.3Z" transform="translate(0.5 0.5)" fill="#ffd758" stroke="#d4d4d4" stroke-width="1"/>
    <path id="Path_129" data-name="Path 129" d="M57.5,277.5v16.184H73V277.5Zm14.29,11.005H70.674v-.574a2.191,2.191,0,0,1-1.535.615,2.726,2.726,0,0,1-1.974-.829,2.883,2.883,0,0,1-.6-.948,3.253,3.253,0,0,1-.222-1.219,2.923,2.923,0,0,1,.222-1.132,2.97,2.97,0,0,1,4.1-1.44,2.214,2.214,0,0,1,.911.931l-1,.755a1.433,1.433,0,0,0-.57-.611,1.58,1.58,0,0,0-.808-.217,1.366,1.366,0,0,0-.611.135,1.4,1.4,0,0,0-.472.378,1.765,1.765,0,0,0-.3.562,2.166,2.166,0,0,0-.107.689,2.047,2.047,0,0,0,.115.7,1.7,1.7,0,0,0,.32.554,1.457,1.457,0,0,0,.488.365,1.474,1.474,0,0,0,.628.131,1.852,1.852,0,0,0,1.42-.73v-.181H69.542v-.977H71.79Z" transform="translate(-57 -251.698)" fill="#ffda44"/>
    <path id="Path_130" data-name="Path 130" d="M227.5,293.684H243V277.5H227.5Zm2.958-11.005h3.955v1.182H231.8v1.256h2.15v1.091H231.8v2.3h-1.346Zm-2.872,0h1.346v5.826h-1.346Z" transform="translate(-211.499 -251.698)" fill="#ffcd00"/>
    <path id="Path_131" data-name="Path 131" d="M295.97,10.186,285.784,0V10.186Z" transform="translate(-264.469 0.5)" fill="#753ad7"/>
    <path id="Union_7" data-name="Union 7" d="M15.827,15.826H0V0H30.934V15.826Z" transform="translate(0.428 26.045)" fill="#753ad7"/>
    <g id="Group_178" data-name="Group 178" transform="translate(8.341 30.936)">
      <path id="Path_306" data-name="Path 306" d="M157.666,337.65H158.8v.181a1.852,1.852,0,0,1-1.42.73,1.474,1.474,0,0,1-.628-.131,1.457,1.457,0,0,1-.488-.365,1.7,1.7,0,0,1-.32-.554,2.048,2.048,0,0,1-.115-.7,2.166,2.166,0,0,1,.107-.689,1.764,1.764,0,0,1,.3-.562,1.4,1.4,0,0,1,.472-.378,1.365,1.365,0,0,1,.611-.135,1.579,1.579,0,0,1,.808.217,1.434,1.434,0,0,1,.57.611l1-.755a2.213,2.213,0,0,0-.911-.931,3.064,3.064,0,0,0-2.569-.111,2.9,2.9,0,0,0-1.756,2.683,3.253,3.253,0,0,0,.222,1.219,2.883,2.883,0,0,0,.6.948,2.726,2.726,0,0,0,1.974.829,2.192,2.192,0,0,0,1.535-.615v.574h1.116v-3.045h-2.248v.977Z" transform="translate(-143.675 -333.847)" fill="#fff"/>
      <path id="Path_307" data-name="Path 307" d="M143.688,336.768q0,.46-.029.792a1.653,1.653,0,0,1-.127.546.675.675,0,0,1-.279.316.978.978,0,0,1-.484.1,1.782,1.782,0,0,1-.62-.1,1.432,1.432,0,0,1-.349-.164l-.3,1.1a2.174,2.174,0,0,0,1.264.361,2.854,2.854,0,0,0,1.206-.214,1.551,1.551,0,0,0,.685-.6,2.353,2.353,0,0,0,.3-.931,9.617,9.617,0,0,0,.07-1.21v-2.962h-1.346Z" transform="translate(-141.505 -333.806)" fill="#fff"/>
      <path id="Path_308" data-name="Path 308" d="M137.844,334.924a1.97,1.97,0,0,0-.6-.451,1.708,1.708,0,0,0-.767-.172h-2.487v5.826h1.346v-1.879h1.182a1.751,1.751,0,0,0,.763-.164,1.779,1.779,0,0,0,.587-.443,2.112,2.112,0,0,0,.377-.632,2.043,2.043,0,0,0,.135-.739,1.881,1.881,0,0,0-.144-.714A2.16,2.16,0,0,0,137.844,334.924Zm-1,1.945a.52.52,0,0,1-.41.205h-1.1v-1.592h1.05a.627.627,0,0,1,.23.045.55.55,0,0,1,.205.144.722.722,0,0,1,.144.246,1.042,1.042,0,0,1,.053.353A.911.911,0,0,1,136.847,336.869Z" transform="translate(-128.955 -334.255)" fill="#fff"/>
    </g>
  </g>
</svg>
