<svg xmlns="http://www.w3.org/2000/svg" width="15.366" height="16.5" viewBox="0 0 15.366 16.5">
  <g id="move-folder" transform="translate(-16.75 0)">
    <path id="Path_336" data-name="Path 336" d="M208.293,2.8h2.975L210.92,4a.208.208,0,0,0,.3.24l3.531-1.927a.207.207,0,0,0,0-.364L211.219.026a.208.208,0,0,0-.3.24l.347,1.2h-2.975a.667.667,0,1,0,0,1.335Z" transform="translate(-184.414 0)" fill="#753ad7"/>
    <path id="Path_337" data-name="Path 337" d="M31.615,149.439H29.434l-.657-2.031a.669.669,0,0,0-.635-.462H17.418a.668.668,0,0,0-.635.873l3.3,10.191a.667.667,0,0,0,.635.462H31.449a.631.631,0,0,0,.663-.567c0-1.991,0-7.964,0-7.964A.5.5,0,0,0,31.615,149.439Zm-10.256,0a.5.5,0,0,0-.5.5v6.14l-2.523-7.8h9.321l.374,1.158Z" transform="translate(0 -141.972)" fill="#753ad7"/>
  </g>
</svg>
