<svg xmlns="http://www.w3.org/2000/svg" xmlns:xlink="http://www.w3.org/1999/xlink" width="32.606" height="42.797" viewBox="0 0 32.606 42.797">
  <defs>
    <clipPath id="clip-path">
      <rect width="32.606" height="42.797" fill="none"/>
    </clipPath>
  </defs>
  <g id="file-21" transform="translate(0)" clip-path="url(#clip-path)">
    <path id="Union_6" data-name="Union 6" d="M15.8,25.8H0V0H21.221V10.386H31.606V25.8Z" transform="translate(0.5 0.5)" fill="#ffd758" stroke="#d4d4d4" stroke-width="1"/>
    <path id="Path_129" data-name="Path 129" d="M57.5,277.5V294H73.3V277.5Zm14.569,11.22H70.931v-.586a2.234,2.234,0,0,1-1.565.627,2.779,2.779,0,0,1-2.012-.845,2.939,2.939,0,0,1-.615-.966,3.316,3.316,0,0,1-.226-1.242,2.98,2.98,0,0,1,.226-1.155,2.922,2.922,0,0,1,.623-.945,2.956,2.956,0,0,1,2.113-.87,2.911,2.911,0,0,1,1.447.347,2.257,2.257,0,0,1,.929.95l-1.021.77a1.461,1.461,0,0,0-.581-.623,1.61,1.61,0,0,0-.824-.222,1.393,1.393,0,0,0-.623.138,1.426,1.426,0,0,0-.481.385,1.8,1.8,0,0,0-.31.573,2.208,2.208,0,0,0-.109.7,2.087,2.087,0,0,0,.117.711,1.733,1.733,0,0,0,.326.565,1.485,1.485,0,0,0,.5.372,1.5,1.5,0,0,0,.64.134,1.888,1.888,0,0,0,1.447-.745v-.184H69.777v-1h2.292Z" transform="translate(-49.169 -251.203)" fill="#ffda44"/>
    <path id="Path_130" data-name="Path 130" d="M227.5,294h15.8V277.5H227.5Zm3.016-11.22h4.033v1.2h-2.66v1.28h2.192v1.113h-2.192v2.343h-1.372Zm-2.928,0h1.372v5.94h-1.372Z" transform="translate(-219.169 -251.203)" fill="#ffcd00"/>
    <path id="Path_131" data-name="Path 131" d="M296.169,10.385,285.784,0V10.385Z" transform="translate(-263.824 0.5)" fill="#753ad7"/>
    <path id="Union_7" data-name="Union 7" d="M16.4,16.135H0V0H32.06V16.135Z" transform="translate(0.5 26.545)" fill="#753ad7"/>
    <g id="Group_219" data-name="Group 219" transform="translate(5.199 31.531)">
      <path id="Path_317" data-name="Path 317" d="M113.6,338.761l-.615-1.632,1.017-2.82h-1.3l-.615,1.94-.615-1.94H110.18l1,2.82-.6,1.632-1.53-4.461h-1.521l2.419,6.068h1.179l.957-2.376.966,2.376h1.171l2.427-6.068h-1.53Z" transform="translate(-107.531 -334.3)" fill="#fefeff"/>
      <path id="Path_318" data-name="Path 318" d="M213.64,340.368h1.4v-3.632l1.316,2.641h.752l1.316-2.641v3.632h1.4V334.3h-1.513l-1.581,3.171-1.573-3.171H213.64Z" transform="translate(-203.563 -334.3)" fill="#fefeff"/>
      <path id="Path_319" data-name="Path 319" d="M291.5,339.01h1.889l.47,1.359h1.436l-2.214-6.068h-1.265l-2.214,6.068h1.436Zm.949-3.111.709,2.145h-1.436Z" transform="translate(-272.308 -334.301)" fill="#fefeff"/>
    </g>
  </g>
</svg>
