<svg id="inbox_1_" data-name="inbox (1)" xmlns="http://www.w3.org/2000/svg" width="16.5" height="16.5" viewBox="0 0 16.5 16.5">
  <path id="Path_328" data-name="Path 328" d="M7.75,8.75l2.922,3.094L13.594,8.75Z" transform="translate(-2.422 -2.734)" fill="#753ad7"/>
  <path id="Path_329" data-name="Path 329" d="M10.437,12.125a.516.516,0,0,1-.375-.162L7.141,8.87A.516.516,0,0,1,7.516,8h5.844a.515.515,0,0,1,.374.87l-2.922,3.094A.513.513,0,0,1,10.437,12.125ZM8.712,9.031l1.726,1.827,1.726-1.827Z" transform="translate(-2.187 -2.5)" fill="#753ad7"/>
  <path id="Path_330" data-name="Path 330" d="M11.688,8.422A.687.687,0,0,1,11,7.734V.688a.687.687,0,1,1,1.375,0V7.734A.687.687,0,0,1,11.688,8.422Z" transform="translate(-3.437)" fill="#753ad7"/>
  <path id="Path_331" data-name="Path 331" d="M15.3,14H13.4a1.2,1.2,0,0,0-1.153.857l-.59,1.968a.864.864,0,0,1-.823.613H5.664a.864.864,0,0,1-.823-.613l-.59-1.968A1.2,1.2,0,0,0,3.1,14H1.2A1.2,1.2,0,0,0,0,15.2v3.781a1.892,1.892,0,0,0,1.891,1.891H14.609A1.892,1.892,0,0,0,16.5,18.984V15.2A1.2,1.2,0,0,0,15.3,14Z" transform="translate(0 -4.375)" fill="#753ad7"/>
</svg>
