<svg xmlns="http://www.w3.org/2000/svg" xmlns:xlink="http://www.w3.org/1999/xlink" width="30.81" height="39.503" viewBox="0 0 30.81 39.503">
  <defs>
    <clipPath id="clip-path">
      <rect width="30.81" height="39.503" fill="none"/>
    </clipPath>
  </defs>
  <g id="Component_36_6" data-name="Component 36 – 6" clip-path="url(#clip-path)">
    <path id="Path_349" data-name="Path 349" d="M13.1.256c8.911.082,14.984.255,14.984.255C29.191.511,30,.9,30,2V28c0,1.1,1.1,1.331,0,1.331L4.179,31.566C3.074,31.566,0,29.1,0,28V2C0,.9,4.191.174,13.1.256Z" transform="translate(0.313 -0.249)" fill="#ffd758"/>
    <path id="Path_8" data-name="Path 8" d="M32.06,0H5.574A2.163,2.163,0,0,0,3.411,2.162V37.338A2.16,2.16,0,0,0,5.574,39.5H25.452V31.83a2.161,2.161,0,0,1,2.163-2.159h6.606V2.162A2.162,2.162,0,0,0,32.06,0ZM21.335,4.546V4.64a1.54,1.54,0,0,1-1.589,1.449h-1.4A1.456,1.456,0,0,1,16.852,4.64V4.546a1.5,1.5,0,0,1,1.494-1.493h1.4A1.578,1.578,0,0,1,21.335,4.546ZM13.864,1.513a1.456,1.456,0,0,1,1.5-1.446H16.9a1.453,1.453,0,0,1,1.491,1.446v.047A1.492,1.492,0,0,1,16.9,3.054h-1.54a1.5,1.5,0,0,1-1.5-1.493Zm1.449,4.575h1.54a1.451,1.451,0,0,1,1.494,1.446,1.492,1.492,0,0,1-1.494,1.493h-1.54a1.5,1.5,0,0,1-1.5-1.493A1.455,1.455,0,0,1,15.313,6.088Zm-1.5,7.471v-.047a1.5,1.5,0,0,1,1.5-1.5H16.9a1.491,1.491,0,0,1,1.491,1.5v.047A1.493,1.493,0,0,1,16.9,15.052H15.313A1.5,1.5,0,0,1,13.817,13.559ZM19.84,29.941H16.947a1.538,1.538,0,0,1-1.54-1.5V21.026a1.536,1.536,0,0,1,1.54-1.5h2.8a1.535,1.535,0,0,1,1.54,1.5l.048,7.417A1.5,1.5,0,0,1,19.84,29.941Zm.046-11.949H18.347a1.456,1.456,0,0,1-1.494-1.451,1.492,1.492,0,0,1,1.494-1.491h1.539a1.492,1.492,0,0,1,1.494,1.491A1.456,1.456,0,0,1,19.886,17.992Zm-.092-5.976H18.3a1.494,1.494,0,0,1,0-2.989h1.5a1.576,1.576,0,0,1,1.585,1.5A1.577,1.577,0,0,1,19.794,12.016Z" transform="translate(-3.411 0.003)" fill="#753ad7"/>
  </g>
</svg>
