<svg xmlns="http://www.w3.org/2000/svg" width="31.271" height="41.01" viewBox="0 0 31.271 41.01">
  <g id="file-21" transform="translate(0.429 0.5)">
    <path id="Union_6" data-name="Union 6" d="M15.135,24.707H0V0H20.325V9.947h9.946v14.76Z" transform="translate(0.071 0)" fill="#ffd758" stroke="#d4d4d4" stroke-width="1"/>
    <path id="Path_129" data-name="Path 129" d="M57.5,277.5v15.8H72.635V277.5Zm13.954,10.746h-1.09v-.561a2.14,2.14,0,0,1-1.5.6,2.662,2.662,0,0,1-1.927-.809,2.815,2.815,0,0,1-.589-.926,3.176,3.176,0,0,1-.216-1.19,2.854,2.854,0,0,1,.216-1.106,2.8,2.8,0,0,1,.6-.905,2.832,2.832,0,0,1,2.023-.833,2.788,2.788,0,0,1,1.386.333,2.162,2.162,0,0,1,.889.909l-.978.737a1.4,1.4,0,0,0-.557-.6,1.543,1.543,0,0,0-.789-.212,1.334,1.334,0,0,0-.6.132,1.366,1.366,0,0,0-.461.369,1.723,1.723,0,0,0-.3.549,2.115,2.115,0,0,0-.1.673,2,2,0,0,0,.112.681,1.66,1.66,0,0,0,.313.541,1.423,1.423,0,0,0,.477.357,1.44,1.44,0,0,0,.613.128,1.808,1.808,0,0,0,1.386-.713v-.176H69.258v-.954h2.2Z" transform="translate(-57.429 -252.794)" fill="#ffda44"/>
    <path id="Path_130" data-name="Path 130" d="M227.5,293.3h15.135V277.5H227.5Zm2.889-10.746h3.862v1.154H231.7v1.226h2.1V286h-2.1v2.244h-1.314Zm-2.8,0H228.9v5.689h-1.314Z" transform="translate(-212.294 -252.794)" fill="#ffcd00"/>
    <path id="Path_131" data-name="Path 131" d="M295.73,9.946,285.784,0V9.946Z" transform="translate(-265.389 0)" fill="#753ad7"/>
    <path id="Union_7" data-name="Union 7" d="M15.454,15.453H0V0H30.205V15.453Z" transform="translate(0 24.944)" fill="#753ad7"/>
    <g id="Group_213" data-name="Group 213">
      <path id="Path_310" data-name="Path 310" d="M157.645,337.625h1.125v.179a1.84,1.84,0,0,1-1.41.725,1.464,1.464,0,0,1-.624-.13,1.447,1.447,0,0,1-.485-.363,1.691,1.691,0,0,1-.318-.55,2.035,2.035,0,0,1-.114-.693,2.152,2.152,0,0,1,.106-.685,1.753,1.753,0,0,1,.3-.558,1.391,1.391,0,0,1,.469-.375,1.356,1.356,0,0,1,.607-.134,1.569,1.569,0,0,1,.8.216,1.424,1.424,0,0,1,.567.607l.994-.75a2.2,2.2,0,0,0-.9-.925,3.044,3.044,0,0,0-2.551-.11,2.876,2.876,0,0,0-1.744,2.665,3.231,3.231,0,0,0,.22,1.21,2.863,2.863,0,0,0,.6.941,2.707,2.707,0,0,0,1.96.823,2.177,2.177,0,0,0,1.524-.611v.571h1.109v-3.024h-2.233v.97Z" transform="translate(-145.733 -304.132)" fill="#fff"/>
      <rect id="Rectangle_75" data-name="Rectangle 75" width="1.337" height="5.787" transform="translate(15.433 29.76)" fill="#fff"/>
      <path id="Path_311" data-name="Path 311" d="M261.281,337.805h2.136v-1.084h-2.136v-1.247h2.592V334.3h-3.929v5.787h1.337Z" transform="translate(-241.658 -304.54)" fill="#fff"/>
    </g>
  </g>
</svg>
