<svg xmlns="http://www.w3.org/2000/svg" xmlns:xlink="http://www.w3.org/1999/xlink" width="49.707" height="41.296" viewBox="0 0 49.707 41.296">
  <defs>
    <clipPath id="clip-path">
      <rect width="49.707" height="41.296" fill="none"/>
    </clipPath>
  </defs>
  <g id="folder" clip-path="url(#clip-path)">
    <path id="Trazado_303" data-name="Trazado 303" d="M245.316,69.715h-19.5a5.263,5.263,0,0,1,.443,2.118v5.294h19.059a5.3,5.3,0,0,1,5.294,5.294V75.009A5.3,5.3,0,0,0,245.316,69.715Z" transform="translate(-201.402 -66.038)" fill="#753ad7"/>
    <path id="Unión_12" data-name="Unión 12" d="M24.354,40.3H0v-35A5.3,5.3,0,0,1,5.294,0H19.06a5.3,5.3,0,0,1,5.294,5.294v5.294h19.06a5.3,5.3,0,0,1,5.293,5.294V40.3Z" transform="translate(0.5 0.5)" fill="#ffd758" stroke="#d4d4d4" stroke-width="1"/>
  </g>
</svg>
