<svg xmlns="http://www.w3.org/2000/svg" width="12.902" height="16.5" viewBox="0 0 12.902 16.5">
  <g id="Group_274" data-name="Group 274" transform="translate(-16.875 -12.083)">
    <path id="Path_338" data-name="Path 338" d="M405.758,254.344h4.413v1.812h-4.413Zm0,0" transform="translate(-384.639 -242.261)" fill="#753ad7"/>
    <path id="Path_341" data-name="Path 341" d="M349.489,300.992H338.413a.913.913,0,0,0,0,1.826h11.076a.913.913,0,0,0,0-1.826Zm0,0" transform="translate(-320.625 -286.008)" fill="#753ad7"/>
    <path id="Path_342" data-name="Path 342" d="M367.906,347.859H357.492v9.571a1.115,1.115,0,0,0,1.114,1.114h8.186a1.115,1.115,0,0,0,1.114-1.114Zm-7.316,8.514a.544.544,0,1,1-1.088,0v-3.5a.544.544,0,1,1,1.088,0Zm2.653,0a.544.544,0,1,1-1.088,0v-3.5a.544.544,0,1,1,1.088,0Zm2.653,0a.544.544,0,1,1-1.088,0v-3.5a.544.544,0,1,1,1.088,0Zm0,0" transform="translate(-339.374 -329.961)" fill="#753ad7"/>
  </g>
</svg>
