<svg xmlns="http://www.w3.org/2000/svg" xmlns:xlink="http://www.w3.org/1999/xlink" width="33.175" height="43.559" viewBox="0 0 33.175 43.559">
  <defs>
    <clipPath id="clip-path">
      <rect width="33.175" height="43.559" fill="none"/>
    </clipPath>
  </defs>
  <g id="file-21" clip-path="url(#clip-path)">
    <path id="Union_6" data-name="Union 6" d="M16.088,26.261H0V0H21.6V10.573H32.175V26.261Z" transform="translate(0.5 0.5)" fill="#ffd758" stroke="#d4d4d4" stroke-width="1"/>
    <path id="Path_129" data-name="Path 129" d="M57.5,277.5v16.8H73.588V277.5Zm14.832,11.422H71.173v-.6a2.274,2.274,0,0,1-1.593.639,2.829,2.829,0,0,1-2.048-.86,2.992,2.992,0,0,1-.626-.984,3.376,3.376,0,0,1-.23-1.265,3.034,3.034,0,0,1,.23-1.175,3.083,3.083,0,0,1,4.259-1.495,2.3,2.3,0,0,1,.945.967l-1.039.784a1.488,1.488,0,0,0-.592-.635,1.639,1.639,0,0,0-.839-.226,1.418,1.418,0,0,0-.635.14,1.452,1.452,0,0,0-.49.392,1.832,1.832,0,0,0-.315.583,2.248,2.248,0,0,0-.111.715,2.125,2.125,0,0,0,.119.724,1.764,1.764,0,0,0,.332.575,1.512,1.512,0,0,0,.507.379,1.53,1.53,0,0,0,.652.136,1.922,1.922,0,0,0,1.473-.758v-.187H70v-1.014h2.334Z" transform="translate(-57 -250.739)" fill="#ffda44"/>
    <path id="Path_130" data-name="Path 130" d="M227.5,294.3h16.088V277.5H227.5Zm3.07-11.422h4.105V284.1h-2.708v1.3H234.2v1.133h-2.231v2.385h-1.4Zm-2.981,0h1.4v6.047h-1.4Z" transform="translate(-210.912 -250.739)" fill="#ffcd00"/>
    <path id="Path_131" data-name="Path 131" d="M296.356,10.572,285.784,0V10.572Z" transform="translate(-263.68 0.5)" fill="#753ad7"/>
    <path id="Union_7" data-name="Union 7" d="M16.426,16.425H0V0H32.106V16.425Z" transform="translate(0.425 27.014)" fill="#753ad7"/>
    <g id="Group_216" data-name="Group 216" transform="translate(8.917 32.09)">
      <path id="Path_314" data-name="Path 314" d="M139.905,330.886l-1.588-3.2h-1.536v6.126H138.2v-3.667l1.329,2.666h.759l1.329-2.666v3.667h1.415v-6.126H141.5Z" transform="translate(-136.782 -327.685)" fill="#fff"/>
      <path id="Path_315" data-name="Path 315" d="M218.681,333.811H220.1v-1.976h1.242a1.84,1.84,0,0,0,.8-.173,1.868,1.868,0,0,0,.617-.466,2.217,2.217,0,0,0,.4-.664,2.148,2.148,0,0,0,.142-.777,1.978,1.978,0,0,0-.151-.751,2.274,2.274,0,0,0-.414-.665,2.069,2.069,0,0,0-.63-.474,1.8,1.8,0,0,0-.807-.181h-2.614v6.126Zm1.415-4.884h1.1a.659.659,0,0,1,.242.048.578.578,0,0,1,.216.151.762.762,0,0,1,.151.259,1.1,1.1,0,0,1,.056.371.955.955,0,0,1-.181.63.547.547,0,0,1-.431.216H220.1Z" transform="translate(-210.829 -327.685)" fill="#fff"/>
      <path id="Path_316" data-name="Path 316" d="M277.273,344.725a1.832,1.832,0,0,1-.712-.125,1.582,1.582,0,0,1-.531-.367l-.742.984a2.722,2.722,0,0,0,2.053.768,3.469,3.469,0,0,0,.966-.125,2.288,2.288,0,0,0,.738-.354,1.569,1.569,0,0,0,.47-.552,1.59,1.59,0,0,0,.164-.729,1.811,1.811,0,0,0-.086-.565,1.508,1.508,0,0,0-.246-.466,1.4,1.4,0,0,0-.384-.337,1.515,1.515,0,0,0-.492-.186,1.26,1.26,0,0,0,.444-.168,1.306,1.306,0,0,0,.35-.315,1.506,1.506,0,0,0,.229-.423,1.473,1.473,0,0,0,.082-.492,1.331,1.331,0,0,0-.147-.626,1.444,1.444,0,0,0-.414-.483,1.938,1.938,0,0,0-.647-.311,3.058,3.058,0,0,0-.837-.108,3.716,3.716,0,0,0-.673.06,3.532,3.532,0,0,0-.613.168,2.363,2.363,0,0,0-.509.263,1.578,1.578,0,0,0-.362.337l.872,1a1.431,1.431,0,0,1,.487-.479,1.254,1.254,0,0,1,.643-.168.866.866,0,0,1,.526.147.5.5,0,0,1,.2.431.621.621,0,0,1-.272.526,1.259,1.259,0,0,1-.755.2h-.285v.992h.259a1.636,1.636,0,0,1,.91.2.666.666,0,0,1,.289.587Q278.248,344.725,277.273,344.725Z" transform="translate(-262.011 -339.746)" fill="#fff"/>
    </g>
  </g>
</svg>
