<svg xmlns="http://www.w3.org/2000/svg" width="35.13" height="26.444" viewBox="0 0 35.13 26.444">
  <g id="list" transform="translate(0)">
    <path id="Trazado_321" data-name="Trazado 321" d="M39.164,49.4H15.673a1.753,1.753,0,0,1,0-3.506H39.164a1.753,1.753,0,0,1,0,3.506Z" transform="translate(-5.786 -23.421)" fill="#753ad7"/>
    <path id="Trazado_322" data-name="Trazado 322" d="M39.164,30.568H15.673a1.753,1.753,0,0,1,0-3.506H39.164a1.753,1.753,0,0,1,0,3.506Z" transform="translate(-5.786 -15.593)" fill="#753ad7"/>
    <path id="Trazado_323" data-name="Trazado 323" d="M39.164,11.737H15.673a1.753,1.753,0,0,1,0-3.506H39.164a1.753,1.753,0,0,1,0,3.506Z" transform="translate(-5.786 -7.765)" fill="#753ad7"/>
    <ellipse id="Elipse_32" data-name="Elipse 32" cx="2.354" cy="2.354" rx="2.354" ry="2.354" transform="translate(0 0)" fill="#753ad7"/>
    <ellipse id="Elipse_33" data-name="Elipse 33" cx="2.354" cy="2.354" rx="2.354" ry="2.354" transform="translate(0 10.868)" fill="#753ad7"/>
    <ellipse id="Elipse_34" data-name="Elipse 34" cx="2.354" cy="2.354" rx="2.354" ry="2.354" transform="translate(0 21.735)" fill="#753ad7"/>
  </g>
</svg>
