<svg xmlns="http://www.w3.org/2000/svg" width="21.729" height="27.789" viewBox="0 0 21.729 27.789">
  <g id="Group_286" data-name="Group 286" transform="translate(0 0)">
    <path id="Path_338" data-name="Path 338" d="M405.758,254.344h7.433V257.4h-7.433Zm0,0" transform="translate(-398.61 -254.344)" fill="#d4d4d4"/>
    <path id="Path_341" data-name="Path 341" d="M357.692,300.992H339.038a1.538,1.538,0,0,0,0,3.075h18.654a1.538,1.538,0,0,0,0-3.075Zm0,0" transform="translate(-337.5 -296.107)" fill="#d4d4d4"/>
    <path id="Path_342" data-name="Path 342" d="M375.032,347.859h-17.54v16.12a1.878,1.878,0,0,0,1.877,1.876h13.787a1.878,1.878,0,0,0,1.876-1.876ZM362.71,362.2a.916.916,0,1,1-1.833,0v-5.9a.916.916,0,1,1,1.833,0Zm4.469,0a.916.916,0,1,1-1.833,0v-5.9a.916.916,0,1,1,1.833,0Zm4.468,0a.916.916,0,1,1-1.833,0v-5.9a.916.916,0,1,1,1.833,0Zm0,0" transform="translate(-355.398 -338.066)" fill="#d4d4d4"/>
  </g>
</svg>
