<svg xmlns="http://www.w3.org/2000/svg" width="28.714" height="20.1" viewBox="0 0 28.714 20.1">
  <g id="black-envelope" transform="translate(0 0)">
    <g id="Grupo_314" data-name="Grupo 314">
      <path id="Trazado_357" data-name="Trazado 357" d="M2.218,5.366l10.343,8.193a2.631,2.631,0,0,0,1.743.505,2.624,2.624,0,0,0,1.742-.505L26.389,5.366c.829-.652.641-1.187-.41-1.187H2.632C1.579,4.179,1.392,4.714,2.218,5.366Z" transform="translate(0.052 -4.179)" fill="#753ad7"/>
      <path id="Trazado_358" data-name="Trazado 358" d="M27.189,7.438l-11.3,8.581a2.744,2.744,0,0,1-3.056,0L1.526,7.438C.686,6.8,0,7.143,0,8.2V22.274a1.92,1.92,0,0,0,1.914,1.914H26.8a1.92,1.92,0,0,0,1.914-1.914V8.2C28.714,7.143,28.028,6.8,27.189,7.438Z" transform="translate(0 -4.089)" fill="#753ad7"/>
    </g>
  </g>
</svg>
